<svg width="90" height="90" viewBox="0 0 90 90" fill="none" xmlns="http://www.w3.org/2000/svg">
<path d="M4.00336 4.45367H85.7638V85.4586H4.00336V4.45367Z" fill="url(#paint0_radial_1_183)"/>
<path d="M4.00335 4.45367H85.7638V85.4586H4.00335V4.45367ZM0.287781 89.2423H89.4973V0.669922H0.287781V89.2423ZM58.7187 32.2496C58.7187 31.9404 58.8259 31.7949 59.1653 31.7949H65.0066C65.3103 31.7949 65.4532 31.904 65.4532 32.2496V62.1194C65.4532 62.4286 65.3818 62.5742 65.0066 62.5742H59.2368C58.8616 62.5742 58.7545 62.3923 58.7545 62.083V32.2496H58.7187ZM58.3079 23.6453C58.3079 21.2258 59.987 19.7888 62.0949 19.7888C64.3635 19.7888 65.8819 21.335 65.8819 23.6453C65.8819 26.1374 64.2921 27.5018 62.0235 27.5018C59.8799 27.52 58.3079 26.1556 58.3079 23.6453ZM41.5878 44.6923C40.5517 40.4902 38.0866 31.3401 37.1577 26.9015H37.0862C36.3003 31.3219 34.3353 38.8166 32.7812 44.6923H41.5878ZM31.2628 50.8227L28.3332 62.174C28.2618 62.4832 28.1546 62.556 27.7794 62.556H22.3133C21.9381 62.556 21.8667 62.4468 21.9381 61.9921L32.4954 24.3729C32.674 23.6998 32.799 23.0813 32.8705 21.2258C32.8705 20.953 32.9777 20.8438 33.1742 20.8438H40.9804C41.2484 20.8438 41.3556 20.9166 41.427 21.2258L53.2526 62.0648C53.324 62.3741 53.2526 62.556 52.9489 62.556H46.786C46.4823 62.556 46.3037 62.4832 46.2323 62.2104L43.1776 50.8227H31.2628Z" fill="#FF7F18"/>
<defs>
<radialGradient id="paint0_radial_1_183" cx="0" cy="0" r="1" gradientUnits="userSpaceOnUse" gradientTransform="translate(30.958 22.6309) scale(62.1406 61.2673)">
<stop stop-color="#423325" stop-opacity="0.98"/>
<stop offset="1" stop-color="#1C0A00"/>
</radialGradient>
</defs>
</svg>
