<svg width="90" height="90" viewBox="0 0 90 90" fill="none" xmlns="http://www.w3.org/2000/svg">
<path d="M4.07043 4.45367H85.8309V85.4586H4.07043V4.45367Z" fill="url(#paint0_radial_1_195)"/>
<path d="M4.07043 4.45367H85.831V85.4586H4.07043V4.45367ZM0.354858 89.2423H89.5644V0.669922H0.354858V89.2423ZM63.466 43.3644C65.3596 43.3644 66.0384 43.3644 66.217 43.2916C66.217 43.0188 66.2885 42.8369 66.2885 42.6549C66.2885 40.6175 65.3238 36.8338 61.4654 36.8338C57.8927 36.8338 56.3743 40.0172 55.9992 43.3826H63.466V43.3644ZM55.9277 48.5489C55.9992 53.6606 58.375 57.0987 64.0377 57.0987C66.2349 57.0987 68.1284 56.7894 70.0934 55.9344C70.3613 55.8253 70.5399 55.8617 70.5399 56.2073V60.937C70.5399 61.319 70.4328 61.5009 70.1648 61.701C68.1998 62.6833 65.7347 63.1381 62.6979 63.1381C52.891 63.1381 49.2111 55.7525 49.2111 47.5483C49.2111 38.6165 53.7484 31.3037 61.7333 31.3037C69.8433 31.3037 72.6657 38.2345 72.6657 43.8737C72.6657 45.6929 72.5585 47.1663 72.362 47.894C72.2905 48.2032 72.1834 48.3124 71.8797 48.3851C71.1294 48.4943 68.9501 48.658 65.6811 48.658H55.9456V48.5489H55.9277ZM35.9922 44.6923C34.9562 40.4902 32.4196 31.3401 31.4907 26.9015H31.4192C30.6332 31.3219 28.5968 38.8166 27.0784 44.6923H35.9922ZM25.56 50.8227L22.6304 62.1376C22.559 62.4468 22.4518 62.556 22.0767 62.556H16.5926C16.2175 62.556 16.1461 62.4468 16.2175 61.9921L26.7747 24.4093C26.9534 23.7362 27.0784 23.1905 27.1499 21.2986C27.1499 21.0257 27.2571 20.9166 27.4536 20.9166H35.2598C35.5278 20.9166 35.635 20.9894 35.7064 21.2986L47.5141 62.0648C47.5855 62.3741 47.5141 62.556 47.2104 62.556H41.0833C40.7796 62.556 40.601 62.4468 40.5295 62.174L37.4749 50.8227H25.56Z" fill="#D8A1FF"/>
<defs>
<radialGradient id="paint0_radial_1_195" cx="0" cy="0" r="1" gradientUnits="userSpaceOnUse" gradientTransform="translate(31.0229 22.6149) scale(62.1407 61.2673)">
<stop stop-color="#442F55" stop-opacity="0.98"/>
<stop offset="1" stop-color="#12002C"/>
</radialGradient>
</defs>
</svg>
